<svg xmlns="http://www.w3.org/2000/svg" width="1600" height="1000" viewBox="0 0 1600 1000">

  <style>
    svg { background: #eef2f7; }
    text { font-family: "PingFang SC", "Microsoft YaHei", "Noto Sans CJK SC", Arial, sans-serif; fill: #182033; }
    .app { fill: #f4f7fb; }
    .top { fill: #111827; }
    .side { fill: #ffffff; stroke: #dbe2ee; }
    .main { fill: #f6f8fb; }
    .panel { fill: #ffffff; stroke: #d9e1ef; stroke-width: 1; rx: 10; }
    .soft { fill: #f8fafc; stroke: #e2e8f0; rx: 8; }
    .blue { fill: #e8f1ff; stroke: #79a8f7; rx: 8; }
    .green { fill: #e8f7ef; stroke: #64bd84; rx: 8; }
    .amber { fill: #fff5df; stroke: #e4b551; rx: 8; }
    .red { fill: #fff0ef; stroke: #e27468; rx: 8; }
    .purple { fill: #f1edff; stroke: #9279e6; rx: 8; }
    .muted { fill: #687386; }
    .white { fill: #ffffff; }
    .title { font-size: 28px; font-weight: 800; }
    .h2 { font-size: 20px; font-weight: 800; }
    .h3 { font-size: 17px; font-weight: 800; }
    .body { font-size: 15px; fill: #364154; }
    .small { font-size: 13px; fill: #647084; }
    .tiny { font-size: 12px; fill: #7b8495; }
    .nav { font-size: 15px; fill: #334155; }
    .nav-on { font-size: 15px; font-weight: 800; fill: #1d4ed8; }
    .btn { fill: #2563eb; rx: 7; }
    .btn2 { fill: #ffffff; stroke: #cfd8e8; rx: 7; }
    .btnText { font-size: 14px; font-weight: 700; fill: #ffffff; }
    .btnText2 { font-size: 14px; font-weight: 700; fill: #334155; }
    .tag { rx: 13; }
    .tagText { font-size: 12px; font-weight: 700; }
    .line { stroke: #d8dfeb; stroke-width: 1; }
    .th { font-size: 13px; font-weight: 800; fill: #475569; }
    .td { font-size: 13px; fill: #334155; }
  </style>

    <rect class="app" x="0" y="0" width="1600" height="1000"/>
    <rect class="top" x="0" y="0" width="1600" height="64"/>
    <text class="white" x="32" y="40" font-size="22" font-weight="800">ShopView</text>
    <text class="white" x="1350" y="39" font-size="14">装修流程迁移原型</text>
    <rect class="side" x="0" y="64" width="230" height="936"/>
    <text class="nav" x="32" y="118">合同台账</text>
    <rect x="20" y="145" width="190" height="42" fill="#e8f1ff" rx="8"/>
    <text class="nav-on" x="32" y="172">装修管理</text>
    <text class="nav" x="32" y="224">夜间施工</text>
    <text class="nav" x="32" y="270">费用退款</text>
    <text class="nav" x="32" y="316">开柜流转</text>
    <text class="nav" x="32" y="362">ERP 修改记录</text>
    <rect class="main" x="230" y="64" width="1370" height="936"/>
    <text class="title" x="270" y="120">装修项目详情</text>
    <text class="small" x="270" y="148">一张装修单贯穿交保证金、夜间施工、验收退款、开柜流转</text>
  
<rect class="btn" x="1410" y="100" width="96" height="34"/><text class="btnText" text-anchor="middle" x="1458" y="122">发起报备</text><rect class="btn2" x="1288" y="100" width="96" height="34"/><text class="btnText2" text-anchor="middle" x="1336" y="122">上传附件</text>
<rect class="panel" x="270" y="180" width="940" height="170"/><text class="h2" x="292" y="216">项目主信息</text>
<rect class="green tag" x="1110" y="202" width="82" height="26"/><text class="tagText" fill="#166534" text-anchor="middle" x="1151" y="220">施工中</text>

    <text class="tiny" x="292" y="238">品牌/柜组</text>
    <rect class="soft" x="292" y="248" width="210" height="38"/>
    <text class="body" x="304" y="273">爱慕 / 中心三部</text>
  

    <text class="tiny" x="532" y="238">铺位</text>
    <rect class="soft" x="532" y="248" width="160" height="38"/>
    <text class="body" x="544" y="273">6F 厅房</text>
  

    <text class="tiny" x="722" y="238">施工单位</text>
    <rect class="soft" x="722" y="248" width="250" height="38"/>
    <text class="body" x="734" y="273">某某装饰工程有限公司</text>
  

    <text class="tiny" x="1002" y="238">现场负责人</text>
    <rect class="soft" x="1002" y="248" width="180" height="38"/>
    <text class="body" x="1014" y="273">张工 138****9356</text>
  

    <text class="tiny" x="292" y="305">预计施工周期</text>
    <rect class="soft" x="292" y="315" width="250" height="38"/>
    <text class="body" x="304" y="340">2026-06-08 至 2026-06-20</text>
  

    <text class="tiny" x="562" y="305">人数</text>
    <rect class="soft" x="562" y="315" width="110" height="38"/>
    <text class="body" x="574" y="340">7 人</text>
  

    <text class="tiny" x="702" y="305">来源</text>
    <rect class="soft" x="702" y="315" width="190" height="38"/>
    <text class="body" x="714" y="340">合同完成后发起</text>
  

    <text class="tiny" x="922" y="305">当前节点</text>
    <rect class="soft" x="922" y="315" width="190" height="38"/>
    <text class="body" x="934" y="340">夜间施工报备</text>
  
<rect class="panel" x="1235" y="180" width="305" height="170"/><text class="h2" x="1257" y="216">关键提醒</text>
<rect class="amber tag" x="1260" y="230" width="76" height="26"/><text class="tagText" fill="#8a5a10" text-anchor="middle" x="1298" y="248">待上传</text><text class="body" x="1348" y="249">纸质签到表</text>
<rect class="red tag" x="1260" y="275" width="76" height="26"/><text class="tagText" fill="#991b1b" text-anchor="middle" x="1298" y="293">未完成</text><text class="body" x="1348" y="294">退保证金</text>
<rect class="blue tag" x="1260" y="320" width="76" height="26"/><text class="tagText" fill="#1d4ed8" text-anchor="middle" x="1298" y="338">未生成</text><text class="body" x="1348" y="339">开柜流转单</text>
<rect class="panel" x="270" y="380" width="1260" height="130"/><text class="h2" x="292" y="416">流程进度</text>
<circle cx="335" cy="440" r="18" fill="#2563eb"/><text fill="#fff" text-anchor="middle" x="335" y="446" font-size="14" font-weight="800">1</text><text class="tiny" text-anchor="middle" x="335" y="482">合同完成</text><line x1="361" y1="440" x2="454" y2="440" stroke="#2563eb" stroke-width="3"/><circle cx="480" cy="440" r="18" fill="#2563eb"/><text fill="#fff" text-anchor="middle" x="480" y="446" font-size="14" font-weight="800">2</text><text class="tiny" text-anchor="middle" x="480" y="482">交保证金</text><line x1="506" y1="440" x2="599" y2="440" stroke="#2563eb" stroke-width="3"/><circle cx="625" cy="440" r="18" fill="#2563eb"/><text fill="#fff" text-anchor="middle" x="625" y="446" font-size="14" font-weight="800">3</text><text class="tiny" text-anchor="middle" x="625" y="482">施工证</text><line x1="651" y1="440" x2="744" y2="440" stroke="#2563eb" stroke-width="3"/><circle cx="770" cy="440" r="18" fill="#2563eb"/><text fill="#fff" text-anchor="middle" x="770" y="446" font-size="14" font-weight="800">4</text><text class="tiny" text-anchor="middle" x="770" y="482">夜间报备</text><line x1="796" y1="440" x2="889" y2="440" stroke="#cbd5e1" stroke-width="3"/><circle cx="915" cy="440" r="18" fill="#e2e8f0"/><text fill="#64748b" text-anchor="middle" x="915" y="446" font-size="14" font-weight="800">5</text><text class="tiny" text-anchor="middle" x="915" y="482">进出场</text><line x1="941" y1="440" x2="1034" y2="440" stroke="#cbd5e1" stroke-width="3"/><circle cx="1060" cy="440" r="18" fill="#e2e8f0"/><text fill="#64748b" text-anchor="middle" x="1060" y="446" font-size="14" font-weight="800">6</text><text class="tiny" text-anchor="middle" x="1060" y="482">验收</text><line x1="1086" y1="440" x2="1179" y2="440" stroke="#cbd5e1" stroke-width="3"/><circle cx="1205" cy="440" r="18" fill="#e2e8f0"/><text fill="#64748b" text-anchor="middle" x="1205" y="446" font-size="14" font-weight="800">7</text><text class="tiny" text-anchor="middle" x="1205" y="482">退款</text><line x1="1231" y1="440" x2="1324" y2="440" stroke="#cbd5e1" stroke-width="3"/><circle cx="1350" cy="440" r="18" fill="#e2e8f0"/><text fill="#64748b" text-anchor="middle" x="1350" y="446" font-size="14" font-weight="800">8</text><text class="tiny" text-anchor="middle" x="1350" y="482">开柜流转</text>
<rect class="panel" x="270" y="540" width="610" height="310"/><text class="h2" x="292" y="576">费用明细</text>
<rect class="soft" x="292" y="595" width="640" height="208"/><text class="th" x="306" y="621">费用项</text><text class="th" x="456" y="621">金额</text><line class="line" x1="442" y1="595" x2="442" y2="803"/><text class="th" x="576" y="621">是否可退</text><line class="line" x1="562" y1="595" x2="562" y2="803"/><text class="th" x="686" y="621">状态</text><line class="line" x1="672" y1="595" x2="672" y2="803"/><text class="th" x="806" y="621">退款账号</text><line class="line" x1="792" y1="595" x2="792" y2="803"/><line class="line" x1="292" y1="635" x2="932" y2="635"/><text class="td" x="306" y="662">施工证工本费</text><text class="td" x="456" y="662">200.00</text><text class="td" x="576" y="662">否</text><text class="td" x="686" y="662">已缴</text><text class="td" x="806" y="662">-</text><line class="line" x1="292" y1="677" x2="932" y2="677"/><text class="td" x="306" y="704">施工保证金</text><text class="td" x="456" y="704">5000.00</text><text class="td" x="576" y="704">是</text><text class="td" x="686" y="704">已缴</text><text class="td" x="806" y="704">已填写</text><line class="line" x1="292" y1="719" x2="932" y2="719"/><text class="td" x="306" y="746">施工押金</text><text class="td" x="456" y="746">3000.00</text><text class="td" x="576" y="746">是</text><text class="td" x="686" y="746">已缴</text><text class="td" x="806" y="746">已填写</text><line class="line" x1="292" y1="761" x2="932" y2="761"/><text class="td" x="306" y="788">围挡费用</text><text class="td" x="456" y="788">800.00</text><text class="td" x="576" y="788">视规则</text><text class="td" x="686" y="788">待确认</text><text class="td" x="806" y="788">-</text>
<rect class="panel" x="910" y="540" width="620" height="310"/><text class="h2" x="932" y="576">最近动态</text>
<text class="body" x="935" y="610">06-02 09:20  业务上传施工材料和图纸</text>
<line class="line" x1="935" y1="630" x2="1495" y2="630"/>
<text class="body" x="935" y="665">06-02 10:35  工程审核通过，生成应缴费用</text>
<line class="line" x1="935" y1="685" x2="1495" y2="685"/>
<text class="body" x="935" y="720">06-02 14:10  施工方完成扫码缴费</text>
<line class="line" x1="935" y1="740" x2="1495" y2="740"/>
<text class="body" x="935" y="775">06-02 15:00  物业发放施工证</text>
<line class="line" x1="935" y1="795" x2="1495" y2="795"/>
<text class="body" x="935" y="830">06-02 16:30  业务发起夜间施工报备</text>
</svg>
